<svg width="1008" height="1008" viewBox="0 0 1008 1008" fill="none" xmlns="http://www.w3.org/2000/svg">
<circle cx="504" cy="504" r="504" fill="#0074D5"/>
<path d="M882.94 502.317C882.94 536.196 828.656 612.946 772.184 653.725C745.706 673.106 714.385 682.099 688.609 684.115C685.095 684.813 684.47 682.72 687.907 681.324C687.907 680.626 688.609 680.626 688.609 680.626H689.312L687.907 323.93C684.392 322.534 685.095 320.441 688.609 321.139C715.088 323.232 745.706 332.225 772.184 351.529C779.136 356.335 786.79 362.615 793.742 368.817C841.778 410.991 883.565 473.167 882.862 502.239L882.94 502.317Z" fill="white"/>
<path d="M757.202 502.529C757.202 635.511 692.335 680.485 692.335 680.485C688.233 683.98 684.053 685.301 677.164 686C675.074 686 667.488 686 661.992 685.301C633.661 681.184 552.23 642.346 549.521 503.15C548.127 462.992 557.107 426.251 571.582 396.501C591.63 353.546 625.379 324.495 666.791 321H673.68C677.164 321 681.266 321 685.446 322.398C687.536 323.097 689.549 323.796 692.335 325.894C692.335 325.894 757.202 368.849 757.202 502.529Z" fill="#0B1213"/>
<path d="M458.565 502.317C458.565 536.196 404.761 612.946 348.789 653.725C322.545 673.106 291.501 682.099 265.954 684.115C262.47 684.813 261.851 682.72 265.257 681.324C265.257 680.626 265.954 680.626 265.954 680.626H266.651L265.257 323.93C261.773 322.534 262.47 320.441 265.954 321.139C292.198 323.232 322.545 332.225 348.789 351.529C355.679 356.335 363.266 362.615 370.156 368.817C417.767 410.991 459.184 473.167 458.487 502.239L458.565 502.317Z" fill="white"/>
<path d="M332.823 502.529C332.823 635.511 267.957 680.485 267.957 680.485C263.854 683.98 259.674 685.301 252.785 686C250.695 686 243.109 686 237.613 685.301C209.283 681.184 127.851 642.346 125.142 503.15C123.749 462.992 132.728 426.251 147.203 396.501C167.251 353.546 201 324.495 242.412 321H249.302C252.785 321 256.887 321 261.067 322.398C263.157 323.097 265.17 323.796 267.957 325.894C267.957 325.894 332.823 368.849 332.823 502.529Z" fill="#0B1213"/>
</svg>
